<svg width="44" height="44" viewBox="0 0 44 44" fill="none" xmlns="http://www.w3.org/2000/svg">
<rect width="44" height="44" rx="14" fill="url(#paint0_linear_468_132)"/>
<path d="M27.06 22.02V26.18C27.06 26.5533 26.9867 26.84 26.84 27.04C26.7067 27.2267 26.48 27.4067 26.16 27.58C25.8 27.78 25.28 27.9533 24.6 28.1C23.92 28.26 23.24 28.34 22.56 28.34C21.28 28.34 20.1267 28.12 19.1 27.68C18.0867 27.2267 17.28 26.5333 16.68 25.6C16.0933 24.6533 15.8 23.44 15.8 21.96C15.8 20.5467 16.1 19.3667 16.7 18.42C17.3 17.46 18.1067 16.74 19.12 16.26C20.1467 15.7667 21.28 15.52 22.52 15.52C23.3467 15.52 24.06 15.6067 24.66 15.78C25.2733 15.9533 25.74 16.1933 26.06 16.5C26.3933 16.8067 26.56 17.16 26.56 17.56C26.56 17.8533 26.48 18.12 26.32 18.36C26.1733 18.5867 25.9933 18.76 25.78 18.88C25.4467 18.6667 25.0267 18.4667 24.52 18.28C24.0133 18.0933 23.42 18 22.74 18C22.0067 18 21.3467 18.16 20.76 18.48C20.1867 18.7867 19.74 19.24 19.42 19.84C19.1 20.4267 18.94 21.1267 18.94 21.94C18.94 22.82 19.0933 23.5533 19.4 24.14C19.72 24.7267 20.1533 25.1667 20.7 25.46C21.26 25.74 21.8933 25.88 22.6 25.88C22.9333 25.88 23.2333 25.8467 23.5 25.78C23.78 25.7133 23.9933 25.6467 24.14 25.58V23.24H21.8C21.72 23.1067 21.6467 22.94 21.58 22.74C21.5133 22.5267 21.48 22.3 21.48 22.06C21.48 21.6467 21.5733 21.3467 21.76 21.16C21.96 20.96 22.22 20.86 22.54 20.86H25.9C26.26 20.86 26.54 20.96 26.74 21.16C26.9533 21.36 27.06 21.6467 27.06 22.02Z" fill="white"/>
<defs>
<linearGradient id="paint0_linear_468_132" x1="22" y1="0" x2="22" y2="44" gradientUnits="userSpaceOnUse">
<stop stop-color="#FF395C"/>
<stop offset="1" stop-color="#FF6243"/>
</linearGradient>
</defs>
</svg>
